# xmcd
#
# Track frame offsets:
#	150
#	16367
#	27621
#	42042
#	59430
#	76471
#	97157
#	116369
#	131562
#	144976
#	163176
#	177562
#	184628
#	208000
#	218662
#	235822
#	256919
#	271967
#	284247
#	296287
#	309270
#	333017
#
# Disc length: 4744
#
# Revision: 1
# Processed by: cddbd v1.5.1PL0 Copyright (c) Steve Scherf et al.
# Submitted via: dBpowerAMP V4.0
# Normalized: r0:TDELIM( - )
#
DISCID=44128616
DTITLE=Various Artist - The Best Of France Vol.2 CD2
DYEAR=1900
DGENRE=
TTITLE0=In-Grid - Tu Es Foutu
TTITLE1=Sabin Paturel - Les Betises
TTITLE2=Mirelle Mathieu - Solitario Joe
TTITLE3=Joe Dassin - Il Etat Une Fois Nous Deux
TTITLE4=Patricia Kaas - Venus Des Abribus
TTITLE5=Notre Dame De Paris - Belle
TTITLE6=Emma Shapplin - Carmine Meo
TTITLE7=Iva - Ou Tu Veux Quan Tu Veux
TTITLE8=Mirelle Mathieu - Toi, Moi, Nous
TTITLE9=Patrick Fiori - Etre La
TTITLE10=Joe Dassin - Si Tu Appelles Melanchlie
TTITLE11=Patricia Kaas - Un Dernier Blues
TTITLE12=Jane Birkin - Serge Gainsbourg - La Decadence
TTITLE13=Charles Aznavour - Les Comediens
TTITLE14=Mark Lavoine - Paris
TTITLE15=Mylene Farmer - California
TTITLE16=Niagara - Ma Dernierre Pensee
TTITLE17=Michel Fugain - Je Ayrai Pas Le Temps
TTITLE18=Salvatore Adamo - Commte Toujours
TTITLE19=Silvia Kristel - Emmanuelle 2
TTITLE20=Vanessa Paradis - Marylin Et John
TTITLE21=Le Professional - Chi Mai
EXTD=
EXTT0=
EXTT1=
EXTT2=
EXTT3=
EXTT4=
EXTT5=
EXTT6=
EXTT7=
EXTT8=
EXTT9=
EXTT10=
EXTT11=
EXTT12=
EXTT13=
EXTT14=
EXTT15=
EXTT16=
EXTT17=
EXTT18=
EXTT19=
EXTT20=
EXTT21=
PLAYORDER=
